<?xml version="1.0" encoding="UTF-8" standalone="no"?>
<!DOCTYPE svg PUBLIC "-//W3C//DTD SVG 1.1//EN"
 "http://www.w3.org/Graphics/SVG/1.1/DTD/svg11.dtd">
<!-- Generated by graphviz version 2.43.0 (0)
 -->
<!-- Title: %3 Pages: 1 -->
<svg width="4930pt" height="692pt"
 viewBox="0.00 0.00 4929.70 692.00" xmlns="http://www.w3.org/2000/svg" xmlns:xlink="http://www.w3.org/1999/xlink">
<g id="graph0" class="graph" transform="scale(1 1) rotate(0) translate(4 688)">
<title>%3</title>
<polygon fill="white" stroke="transparent" points="-4,4 -4,-688 4925.7,-688 4925.7,4 -4,4"/>
<!-- [root] module.gke_cluster.google_container_cluster.private&#45;cluster (expand) -->
<g id="node1" class="node">
<title>[root] module.gke_cluster.google_container_cluster.private&#45;cluster (expand)</title>
<polygon fill="none" stroke="black" points="1023.2,-468 579.2,-468 579.2,-432 1023.2,-432 1023.2,-468"/>
<text text-anchor="middle" x="801.2" y="-446.3" font-family="Times,serif" font-size="14.00">module.gke_cluster.google_container_cluster.private&#45;cluster</text>
</g>
<!-- [root] module.gke_cluster.var.network_vpc_name (expand) -->
<g id="node16" class="node">
<title>[root] module.gke_cluster.var.network_vpc_name (expand)</title>
<ellipse fill="none" stroke="black" cx="304.2" cy="-378" rx="280.25" ry="18"/>
<text text-anchor="middle" x="304.2" y="-374.3" font-family="Times,serif" font-size="14.00">[root] module.gke_cluster.var.network_vpc_name (expand)</text>
</g>
<!-- [root] module.gke_cluster.google_container_cluster.private&#45;cluster (expand)&#45;&gt;[root] module.gke_cluster.var.network_vpc_name (expand) -->
<g id="edge3" class="edge">
<title>[root] module.gke_cluster.google_container_cluster.private&#45;cluster (expand)&#45;&gt;[root] module.gke_cluster.var.network_vpc_name (expand)</title>
<path fill="none" stroke="black" d="M680.25,-431.97C602.71,-421.04 502.43,-406.92 424.92,-396"/>
<polygon fill="black" stroke="black" points="425.02,-392.48 414.63,-394.55 424.04,-399.41 425.02,-392.48"/>
</g>
<!-- [root] module.gke_cluster.var.sub_network_name (expand) -->
<g id="node17" class="node">
<title>[root] module.gke_cluster.var.sub_network_name (expand)</title>
<ellipse fill="none" stroke="black" cx="883.2" cy="-378" rx="280.55" ry="18"/>
<text text-anchor="middle" x="883.2" y="-374.3" font-family="Times,serif" font-size="14.00">[root] module.gke_cluster.var.sub_network_name (expand)</text>
</g>
<!-- [root] module.gke_cluster.google_container_cluster.private&#45;cluster (expand)&#45;&gt;[root] module.gke_cluster.var.sub_network_name (expand) -->
<g id="edge4" class="edge">
<title>[root] module.gke_cluster.google_container_cluster.private&#45;cluster (expand)&#45;&gt;[root] module.gke_cluster.var.sub_network_name (expand)</title>
<path fill="none" stroke="black" d="M821.47,-431.7C831.69,-422.97 844.26,-412.24 855.38,-402.75"/>
<polygon fill="black" stroke="black" points="857.83,-405.26 863.16,-396.1 853.28,-399.94 857.83,-405.26"/>
</g>
<!-- [root] module.gke_cluster.google_container_node_pool.private&#45;cluster&#45;node&#45;pool (expand) -->
<g id="node2" class="node">
<title>[root] module.gke_cluster.google_container_node_pool.private&#45;cluster&#45;node&#45;pool (expand)</title>
<polygon fill="none" stroke="black" points="1544.7,-540 1003.7,-540 1003.7,-504 1544.7,-504 1544.7,-540"/>
<text text-anchor="middle" x="1274.2" y="-518.3" font-family="Times,serif" font-size="14.00">module.gke_cluster.google_container_node_pool.private&#45;cluster&#45;node&#45;pool</text>
</g>
<!-- [root] module.gke_cluster.google_container_node_pool.private&#45;cluster&#45;node&#45;pool (expand)&#45;&gt;[root] module.gke_cluster.google_container_cluster.private&#45;cluster (expand) -->
<g id="edge5" class="edge">
<title>[root] module.gke_cluster.google_container_node_pool.private&#45;cluster&#45;node&#45;pool (expand)&#45;&gt;[root] module.gke_cluster.google_container_cluster.private&#45;cluster (expand)</title>
<path fill="none" stroke="black" d="M1159.09,-503.97C1088.71,-493.55 998.64,-480.22 926.47,-469.54"/>
<polygon fill="black" stroke="black" points="926.81,-466.05 916.41,-468.05 925.79,-472.98 926.81,-466.05"/>
</g>
<!-- [root] module.gke_cluster.google_service_account.gke&#45;cluster&#45;service (expand) -->
<g id="node4" class="node">
<title>[root] module.gke_cluster.google_service_account.gke&#45;cluster&#45;service (expand)</title>
<polygon fill="none" stroke="black" points="1506.7,-468 1041.7,-468 1041.7,-432 1506.7,-432 1506.7,-468"/>
<text text-anchor="middle" x="1274.2" y="-446.3" font-family="Times,serif" font-size="14.00">module.gke_cluster.google_service_account.gke&#45;cluster&#45;service</text>
</g>
<!-- [root] module.gke_cluster.google_container_node_pool.private&#45;cluster&#45;node&#45;pool (expand)&#45;&gt;[root] module.gke_cluster.google_service_account.gke&#45;cluster&#45;service (expand) -->
<g id="edge6" class="edge">
<title>[root] module.gke_cluster.google_container_node_pool.private&#45;cluster&#45;node&#45;pool (expand)&#45;&gt;[root] module.gke_cluster.google_service_account.gke&#45;cluster&#45;service (expand)</title>
<path fill="none" stroke="black" d="M1274.2,-503.7C1274.2,-495.98 1274.2,-486.71 1274.2,-478.11"/>
<polygon fill="black" stroke="black" points="1277.7,-478.1 1274.2,-468.1 1270.7,-478.1 1277.7,-478.1"/>
</g>
<!-- [root] module.gke_cluster.google_project_iam_member.example_binding (expand) -->
<g id="node3" class="node">
<title>[root] module.gke_cluster.google_project_iam_member.example_binding (expand)</title>
<polygon fill="none" stroke="black" points="2047.7,-540 1562.7,-540 1562.7,-504 2047.7,-504 2047.7,-540"/>
<text text-anchor="middle" x="1805.2" y="-518.3" font-family="Times,serif" font-size="14.00">module.gke_cluster.google_project_iam_member.example_binding</text>
</g>
<!-- [root] module.gke_cluster.google_project_iam_member.example_binding (expand)&#45;&gt;[root] module.gke_cluster.google_service_account.gke&#45;cluster&#45;service (expand) -->
<g id="edge7" class="edge">
<title>[root] module.gke_cluster.google_project_iam_member.example_binding (expand)&#45;&gt;[root] module.gke_cluster.google_service_account.gke&#45;cluster&#45;service (expand)</title>
<path fill="none" stroke="black" d="M1675.98,-503.97C1596.64,-493.51 1495.02,-480.11 1413.84,-469.41"/>
<polygon fill="black" stroke="black" points="1413.91,-465.89 1403.53,-468.05 1412.99,-472.83 1413.91,-465.89"/>
</g>
<!-- [root] provider[&quot;registry.terraform.io/hashicorp/google&quot;] -->
<g id="node14" class="node">
<title>[root] provider[&quot;registry.terraform.io/hashicorp/google&quot;]</title>
<polygon fill="none" stroke="black" points="3029.2,-108 2685.67,-90 3029.2,-72 3372.73,-90 3029.2,-108"/>
<text text-anchor="middle" x="3029.2" y="-86.3" font-family="Times,serif" font-size="14.00">provider[&quot;registry.terraform.io/hashicorp/google&quot;]</text>
</g>
<!-- [root] module.gke_cluster.google_service_account.gke&#45;cluster&#45;service (expand)&#45;&gt;[root] provider[&quot;registry.terraform.io/hashicorp/google&quot;] -->
<g id="edge9" class="edge">
<title>[root] module.gke_cluster.google_service_account.gke&#45;cluster&#45;service (expand)&#45;&gt;[root] provider[&quot;registry.terraform.io/hashicorp/google&quot;]</title>
<path fill="none" stroke="black" d="M1260.61,-431.73C1242.97,-410.72 1210.04,-376.07 1173.2,-360 1024.43,-295.12 706.29,-408.33 815.2,-288 883.59,-212.44 2347.21,-127.41 2856.42,-100.02"/>
<polygon fill="black" stroke="black" points="2856.63,-103.51 2866.43,-99.48 2856.25,-96.52 2856.63,-103.51"/>
</g>
<!-- [root] module.gke_cluster (expand) -->
<g id="node18" class="node">
<title>[root] module.gke_cluster (expand)</title>
<ellipse fill="none" stroke="black" cx="304.2" cy="-306" rx="172.77" ry="18"/>
<text text-anchor="middle" x="304.2" y="-302.3" font-family="Times,serif" font-size="14.00">[root] module.gke_cluster (expand)</text>
</g>
<!-- [root] module.gke_cluster.google_service_account.gke&#45;cluster&#45;service (expand)&#45;&gt;[root] module.gke_cluster (expand) -->
<g id="edge8" class="edge">
<title>[root] module.gke_cluster.google_service_account.gke&#45;cluster&#45;service (expand)&#45;&gt;[root] module.gke_cluster (expand)</title>
<path fill="none" stroke="black" d="M1041.41,-432.5C1038.32,-432.33 1035.25,-432.16 1032.2,-432 975.74,-429.02 54.46,-436.68 15.2,-396 -33.25,-345.81 46.46,-323.74 134.34,-314.13"/>
<polygon fill="black" stroke="black" points="134.94,-317.58 144.53,-313.07 134.22,-310.62 134.94,-317.58"/>
</g>
<!-- [root] module.network_module.google_compute_address.nat_ip (expand) -->
<g id="node5" class="node">
<title>[root] module.network_module.google_compute_address.nat_ip (expand)</title>
<polygon fill="none" stroke="black" points="3176.2,-180 2754.2,-180 2754.2,-144 3176.2,-144 3176.2,-180"/>
<text text-anchor="middle" x="2965.2" y="-158.3" font-family="Times,serif" font-size="14.00">module.network_module.google_compute_address.nat_ip</text>
</g>
<!-- [root] module.network_module.google_compute_address.nat_ip (expand)&#45;&gt;[root] provider[&quot;registry.terraform.io/hashicorp/google&quot;] -->
<g id="edge23" class="edge">
<title>[root] module.network_module.google_compute_address.nat_ip (expand)&#45;&gt;[root] provider[&quot;registry.terraform.io/hashicorp/google&quot;]</title>
<path fill="none" stroke="black" d="M2981.02,-143.7C2988.88,-135.09 2998.52,-124.55 3007.1,-115.17"/>
<polygon fill="black" stroke="black" points="3009.84,-117.36 3014,-107.62 3004.67,-112.64 3009.84,-117.36"/>
</g>
<!-- [root] module.network_module (expand) -->
<g id="node24" class="node">
<title>[root] module.network_module (expand)</title>
<ellipse fill="none" stroke="black" cx="3504.2" cy="-18" rx="196.07" ry="18"/>
<text text-anchor="middle" x="3504.2" y="-14.3" font-family="Times,serif" font-size="14.00">[root] module.network_module (expand)</text>
</g>
<!-- [root] module.network_module.google_compute_address.nat_ip (expand)&#45;&gt;[root] module.network_module (expand) -->
<g id="edge22" class="edge">
<title>[root] module.network_module.google_compute_address.nat_ip (expand)&#45;&gt;[root] module.network_module (expand)</title>
<path fill="none" stroke="black" d="M3175.7,-143.97C3259.09,-135.21 3344.09,-123.15 3382.2,-108 3419.68,-93.1 3456.18,-63.96 3479.33,-43.08"/>
<polygon fill="black" stroke="black" points="3481.96,-45.42 3486.95,-36.08 3477.22,-40.27 3481.96,-45.42"/>
</g>
<!-- [root] module.network_module.google_compute_firewall.management_subnet_firewall (expand) -->
<g id="node6" class="node">
<title>[root] module.network_module.google_compute_firewall.management_subnet_firewall (expand)</title>
<polygon fill="none" stroke="black" points="2022.2,-324 1438.2,-324 1438.2,-288 2022.2,-288 2022.2,-324"/>
<text text-anchor="middle" x="1730.2" y="-302.3" font-family="Times,serif" font-size="14.00">module.network_module.google_compute_firewall.management_subnet_firewall</text>
</g>
<!-- [root] module.network_module.google_compute_network.vpc (expand) -->
<g id="node8" class="node">
<title>[root] module.network_module.google_compute_network.vpc (expand)</title>
<polygon fill="none" stroke="black" points="2672.2,-180 2266.2,-180 2266.2,-144 2672.2,-144 2672.2,-180"/>
<text text-anchor="middle" x="2469.2" y="-158.3" font-family="Times,serif" font-size="14.00">module.network_module.google_compute_network.vpc</text>
</g>
<!-- [root] module.network_module.google_compute_firewall.management_subnet_firewall (expand)&#45;&gt;[root] module.network_module.google_compute_network.vpc (expand) -->
<g id="edge24" class="edge">
<title>[root] module.network_module.google_compute_firewall.management_subnet_firewall (expand)&#45;&gt;[root] module.network_module.google_compute_network.vpc (expand)</title>
<path fill="none" stroke="black" d="M1818.97,-287.94C1957.82,-261.26 2225.45,-209.84 2370.29,-182.01"/>
<polygon fill="black" stroke="black" points="2371.34,-185.37 2380.5,-180.04 2370.02,-178.49 2371.34,-185.37"/>
</g>
<!-- [root] module.network_module.google_compute_instance.private&#45;management&#45;vm (expand) -->
<g id="node7" class="node">
<title>[root] module.network_module.google_compute_instance.private&#45;management&#45;vm (expand)</title>
<polygon fill="none" stroke="black" points="4380.7,-324 3823.7,-324 3823.7,-288 4380.7,-288 4380.7,-324"/>
<text text-anchor="middle" x="4102.2" y="-302.3" font-family="Times,serif" font-size="14.00">module.network_module.google_compute_instance.private&#45;management&#45;vm</text>
</g>
<!-- [root] module.network_module.google_compute_instance.private&#45;management&#45;vm (expand)&#45;&gt;[root] module.network_module.google_compute_address.nat_ip (expand) -->
<g id="edge25" class="edge">
<title>[root] module.network_module.google_compute_instance.private&#45;management&#45;vm (expand)&#45;&gt;[root] module.network_module.google_compute_address.nat_ip (expand)</title>
<path fill="none" stroke="black" d="M4104.14,-287.84C4105.39,-267.27 4103.86,-233.41 4083.2,-216 4046.51,-185.08 3297.14,-183.04 3186.48,-179.86"/>
<polygon fill="black" stroke="black" points="3186.37,-176.35 3176.24,-179.46 3186.1,-183.35 3186.37,-176.35"/>
</g>
<!-- [root] module.network_module.google_compute_subnetwork.management (expand) -->
<g id="node10" class="node">
<title>[root] module.network_module.google_compute_subnetwork.management (expand)</title>
<polygon fill="none" stroke="black" points="4074.2,-252 3574.2,-252 3574.2,-216 4074.2,-216 4074.2,-252"/>
<text text-anchor="middle" x="3824.2" y="-230.3" font-family="Times,serif" font-size="14.00">module.network_module.google_compute_subnetwork.management</text>
</g>
<!-- [root] module.network_module.google_compute_instance.private&#45;management&#45;vm (expand)&#45;&gt;[root] module.network_module.google_compute_subnetwork.management (expand) -->
<g id="edge26" class="edge">
<title>[root] module.network_module.google_compute_instance.private&#45;management&#45;vm (expand)&#45;&gt;[root] module.network_module.google_compute_subnetwork.management (expand)</title>
<path fill="none" stroke="black" d="M4034.55,-287.97C3994.52,-277.89 3943.67,-265.08 3901.99,-254.59"/>
<polygon fill="black" stroke="black" points="3902.7,-251.16 3892.15,-252.11 3900.99,-257.95 3902.7,-251.16"/>
</g>
<!-- [root] module.network_module.google_service_account.mac&#45;service&#45;account (expand) -->
<g id="node13" class="node">
<title>[root] module.network_module.google_service_account.mac&#45;service&#45;account (expand)</title>
<polygon fill="none" stroke="black" points="4642.2,-252 4130.2,-252 4130.2,-216 4642.2,-216 4642.2,-252"/>
<text text-anchor="middle" x="4386.2" y="-230.3" font-family="Times,serif" font-size="14.00">module.network_module.google_service_account.mac&#45;service&#45;account</text>
</g>
<!-- [root] module.network_module.google_compute_instance.private&#45;management&#45;vm (expand)&#45;&gt;[root] module.network_module.google_service_account.mac&#45;service&#45;account (expand) -->
<g id="edge27" class="edge">
<title>[root] module.network_module.google_compute_instance.private&#45;management&#45;vm (expand)&#45;&gt;[root] module.network_module.google_service_account.mac&#45;service&#45;account (expand)</title>
<path fill="none" stroke="black" d="M4171.31,-287.97C4212.28,-277.87 4264.37,-265.03 4307,-254.52"/>
<polygon fill="black" stroke="black" points="4307.9,-257.9 4316.78,-252.11 4306.23,-251.11 4307.9,-257.9"/>
</g>
<!-- [root] module.network_module.google_compute_network.vpc (expand)&#45;&gt;[root] provider[&quot;registry.terraform.io/hashicorp/google&quot;] -->
<g id="edge29" class="edge">
<title>[root] module.network_module.google_compute_network.vpc (expand)&#45;&gt;[root] provider[&quot;registry.terraform.io/hashicorp/google&quot;]</title>
<path fill="none" stroke="black" d="M2605.47,-143.97C2703.3,-131.74 2833.25,-115.49 2923.32,-104.23"/>
<polygon fill="black" stroke="black" points="2923.79,-107.7 2933.28,-102.99 2922.92,-100.76 2923.79,-107.7"/>
</g>
<!-- [root] module.network_module.var.vpc_name (expand) -->
<g id="node25" class="node">
<title>[root] module.network_module.var.vpc_name (expand)</title>
<ellipse fill="none" stroke="black" cx="2405.2" cy="-90" rx="262.65" ry="18"/>
<text text-anchor="middle" x="2405.2" y="-86.3" font-family="Times,serif" font-size="14.00">[root] module.network_module.var.vpc_name (expand)</text>
</g>
<!-- [root] module.network_module.google_compute_network.vpc (expand)&#45;&gt;[root] module.network_module.var.vpc_name (expand) -->
<g id="edge28" class="edge">
<title>[root] module.network_module.google_compute_network.vpc (expand)&#45;&gt;[root] module.network_module.var.vpc_name (expand)</title>
<path fill="none" stroke="black" d="M2453.38,-143.7C2445.63,-135.22 2436.16,-124.86 2427.67,-115.58"/>
<polygon fill="black" stroke="black" points="2430.17,-113.12 2420.84,-108.1 2425,-117.85 2430.17,-113.12"/>
</g>
<!-- [root] module.network_module.google_compute_router.router (expand) -->
<g id="node9" class="node">
<title>[root] module.network_module.google_compute_router.router (expand)</title>
<polygon fill="none" stroke="black" points="2451.7,-324 2040.7,-324 2040.7,-288 2451.7,-288 2451.7,-324"/>
<text text-anchor="middle" x="2246.2" y="-302.3" font-family="Times,serif" font-size="14.00">module.network_module.google_compute_router.router</text>
</g>
<!-- [root] module.network_module.google_compute_router.router (expand)&#45;&gt;[root] module.network_module.google_compute_network.vpc (expand) -->
<g id="edge30" class="edge">
<title>[root] module.network_module.google_compute_router.router (expand)&#45;&gt;[root] module.network_module.google_compute_network.vpc (expand)</title>
<path fill="none" stroke="black" d="M2273.1,-287.87C2313.28,-262.28 2389.02,-214.05 2433.7,-185.6"/>
<polygon fill="black" stroke="black" points="2435.65,-188.51 2442.2,-180.19 2431.89,-182.61 2435.65,-188.51"/>
</g>
<!-- [root] module.network_module.google_compute_subnetwork.management (expand)&#45;&gt;[root] module.network_module.google_compute_network.vpc (expand) -->
<g id="edge31" class="edge">
<title>[root] module.network_module.google_compute_subnetwork.management (expand)&#45;&gt;[root] module.network_module.google_compute_network.vpc (expand)</title>
<path fill="none" stroke="black" d="M3574.02,-216.49C3571.07,-216.32 3568.12,-216.16 3565.2,-216 3200.95,-196.05 3109.49,-199.21 2745.2,-180 2724.81,-178.92 2703.59,-177.74 2682.36,-176.51"/>
<polygon fill="black" stroke="black" points="2682.47,-173.01 2672.28,-175.92 2682.06,-179.99 2682.47,-173.01"/>
</g>
<!-- [root] module.network_module.var.management&#45;subnet&#45;name (expand) -->
<g id="node26" class="node">
<title>[root] module.network_module.var.management&#45;subnet&#45;name (expand)</title>
<ellipse fill="none" stroke="black" cx="3872.2" cy="-90" rx="339.84" ry="18"/>
<text text-anchor="middle" x="3872.2" y="-86.3" font-family="Times,serif" font-size="14.00">[root] module.network_module.var.management&#45;subnet&#45;name (expand)</text>
</g>
<!-- [root] module.network_module.google_compute_subnetwork.management (expand)&#45;&gt;[root] module.network_module.var.management&#45;subnet&#45;name (expand) -->
<g id="edge32" class="edge">
<title>[root] module.network_module.google_compute_subnetwork.management (expand)&#45;&gt;[root] module.network_module.var.management&#45;subnet&#45;name (expand)</title>
<path fill="none" stroke="black" d="M3835.19,-215.94C3841.27,-205.84 3848.52,-192.59 3853.2,-180 3860.66,-159.91 3865.54,-136.13 3868.49,-118.21"/>
<polygon fill="black" stroke="black" points="3871.98,-118.56 3870.05,-108.14 3865.06,-117.49 3871.98,-118.56"/>
</g>
<!-- [root] module.network_module.google_compute_subnetwork.restricted (expand) -->
<g id="node11" class="node">
<title>[root] module.network_module.google_compute_subnetwork.restricted (expand)</title>
<polygon fill="none" stroke="black" points="3012.7,-252 2535.7,-252 2535.7,-216 3012.7,-216 3012.7,-252"/>
<text text-anchor="middle" x="2774.2" y="-230.3" font-family="Times,serif" font-size="14.00">module.network_module.google_compute_subnetwork.restricted</text>
</g>
<!-- [root] module.network_module.google_compute_subnetwork.restricted (expand)&#45;&gt;[root] module.network_module.google_compute_network.vpc (expand) -->
<g id="edge33" class="edge">
<title>[root] module.network_module.google_compute_subnetwork.restricted (expand)&#45;&gt;[root] module.network_module.google_compute_network.vpc (expand)</title>
<path fill="none" stroke="black" d="M2699.98,-215.97C2655.7,-205.8 2599.36,-192.87 2553.42,-182.33"/>
<polygon fill="black" stroke="black" points="2554.02,-178.88 2543.49,-180.05 2552.45,-185.7 2554.02,-178.88"/>
</g>
<!-- [root] module.network_module.var.restricted&#45;subnet&#45;name (expand) -->
<g id="node27" class="node">
<title>[root] module.network_module.var.restricted&#45;subnet&#45;name (expand)</title>
<ellipse fill="none" stroke="black" cx="3519.2" cy="-162" rx="324.94" ry="18"/>
<text text-anchor="middle" x="3519.2" y="-158.3" font-family="Times,serif" font-size="14.00">[root] module.network_module.var.restricted&#45;subnet&#45;name (expand)</text>
</g>
<!-- [root] module.network_module.google_compute_subnetwork.restricted (expand)&#45;&gt;[root] module.network_module.var.restricted&#45;subnet&#45;name (expand) -->
<g id="edge34" class="edge">
<title>[root] module.network_module.google_compute_subnetwork.restricted (expand)&#45;&gt;[root] module.network_module.var.restricted&#45;subnet&#45;name (expand)</title>
<path fill="none" stroke="black" d="M2955.49,-215.97C3076.34,-204.61 3234.02,-189.8 3351.87,-178.72"/>
<polygon fill="black" stroke="black" points="3352.44,-182.18 3362.07,-177.76 3351.79,-175.21 3352.44,-182.18"/>
</g>
<!-- [root] module.network_module.google_project_iam_member.example_binding (expand) -->
<g id="node12" class="node">
<title>[root] module.network_module.google_project_iam_member.example_binding (expand)</title>
<polygon fill="none" stroke="black" points="4921.7,-324 4398.7,-324 4398.7,-288 4921.7,-288 4921.7,-324"/>
<text text-anchor="middle" x="4660.2" y="-302.3" font-family="Times,serif" font-size="14.00">module.network_module.google_project_iam_member.example_binding</text>
</g>
<!-- [root] module.network_module.google_project_iam_member.example_binding (expand)&#45;&gt;[root] module.network_module.google_service_account.mac&#45;service&#45;account (expand) -->
<g id="edge35" class="edge">
<title>[root] module.network_module.google_project_iam_member.example_binding (expand)&#45;&gt;[root] module.network_module.google_service_account.mac&#45;service&#45;account (expand)</title>
<path fill="none" stroke="black" d="M4593.52,-287.97C4554.07,-277.89 4503.95,-265.08 4462.87,-254.59"/>
<polygon fill="black" stroke="black" points="4463.73,-251.2 4453.17,-252.11 4462,-257.98 4463.73,-251.2"/>
</g>
<!-- [root] module.network_module.google_service_account.mac&#45;service&#45;account (expand)&#45;&gt;[root] provider[&quot;registry.terraform.io/hashicorp/google&quot;] -->
<g id="edge37" class="edge">
<title>[root] module.network_module.google_service_account.mac&#45;service&#45;account (expand)&#45;&gt;[root] provider[&quot;registry.terraform.io/hashicorp/google&quot;]</title>
<path fill="none" stroke="black" d="M4300.72,-215.98C4195.77,-195.72 4012.1,-162.33 3853.2,-144 3642.4,-119.68 3399.88,-105.77 3232.8,-98.36"/>
<polygon fill="black" stroke="black" points="3232.55,-94.84 3222.41,-97.9 3232.24,-101.83 3232.55,-94.84"/>
</g>
<!-- [root] module.network_module.google_service_account.mac&#45;service&#45;account (expand)&#45;&gt;[root] module.network_module (expand) -->
<g id="edge36" class="edge">
<title>[root] module.network_module.google_service_account.mac&#45;service&#45;account (expand)&#45;&gt;[root] module.network_module (expand)</title>
<path fill="none" stroke="black" d="M4375.04,-215.93C4351.44,-181.49 4292.71,-104.23 4221.2,-72 4133.18,-32.33 3889.71,-21.25 3710.81,-18.69"/>
<polygon fill="black" stroke="black" points="3710.78,-15.19 3700.73,-18.56 3710.68,-22.19 3710.78,-15.19"/>
</g>
<!-- [root] module.gke_cluster (close) -->
<g id="node15" class="node">
<title>[root] module.gke_cluster (close)</title>
<ellipse fill="none" stroke="black" cx="1760.2" cy="-594" rx="163.27" ry="18"/>
<text text-anchor="middle" x="1760.2" y="-590.3" font-family="Times,serif" font-size="14.00">[root] module.gke_cluster (close)</text>
</g>
<!-- [root] module.gke_cluster (close)&#45;&gt;[root] module.gke_cluster.google_container_node_pool.private&#45;cluster&#45;node&#45;pool (expand) -->
<g id="edge1" class="edge">
<title>[root] module.gke_cluster (close)&#45;&gt;[root] module.gke_cluster.google_container_node_pool.private&#45;cluster&#45;node&#45;pool (expand)</title>
<path fill="none" stroke="black" d="M1665.34,-579.34C1590.35,-568.54 1484.92,-553.35 1402.42,-541.47"/>
<polygon fill="black" stroke="black" points="1402.87,-538 1392.47,-540.04 1401.87,-544.93 1402.87,-538"/>
</g>
<!-- [root] module.gke_cluster (close)&#45;&gt;[root] module.gke_cluster.google_project_iam_member.example_binding (expand) -->
<g id="edge2" class="edge">
<title>[root] module.gke_cluster (close)&#45;&gt;[root] module.gke_cluster.google_project_iam_member.example_binding (expand)</title>
<path fill="none" stroke="black" d="M1771.32,-575.7C1776.55,-567.56 1782.9,-557.69 1788.68,-548.7"/>
<polygon fill="black" stroke="black" points="1791.74,-550.41 1794.2,-540.1 1785.85,-546.62 1791.74,-550.41"/>
</g>
<!-- [root] module.gke_cluster.var.network_vpc_name (expand)&#45;&gt;[root] module.gke_cluster (expand) -->
<g id="edge10" class="edge">
<title>[root] module.gke_cluster.var.network_vpc_name (expand)&#45;&gt;[root] module.gke_cluster (expand)</title>
<path fill="none" stroke="black" d="M304.2,-359.7C304.2,-351.98 304.2,-342.71 304.2,-334.11"/>
<polygon fill="black" stroke="black" points="307.7,-334.1 304.2,-324.1 300.7,-334.1 307.7,-334.1"/>
</g>
<!-- [root] module.network_module.output.out_vpc_name (expand) -->
<g id="node19" class="node">
<title>[root] module.network_module.output.out_vpc_name (expand)</title>
<ellipse fill="none" stroke="black" cx="1122.2" cy="-306" rx="298.15" ry="18"/>
<text text-anchor="middle" x="1122.2" y="-302.3" font-family="Times,serif" font-size="14.00">[root] module.network_module.output.out_vpc_name (expand)</text>
</g>
<!-- [root] module.gke_cluster.var.network_vpc_name (expand)&#45;&gt;[root] module.network_module.output.out_vpc_name (expand) -->
<g id="edge11" class="edge">
<title>[root] module.gke_cluster.var.network_vpc_name (expand)&#45;&gt;[root] module.network_module.output.out_vpc_name (expand)</title>
<path fill="none" stroke="black" d="M465.32,-363.21C604.41,-351.31 804.9,-334.15 947.74,-321.93"/>
<polygon fill="black" stroke="black" points="948.26,-325.4 957.93,-321.06 947.66,-318.42 948.26,-325.4"/>
</g>
<!-- [root] module.gke_cluster.var.sub_network_name (expand)&#45;&gt;[root] module.gke_cluster (expand) -->
<g id="edge12" class="edge">
<title>[root] module.gke_cluster.var.sub_network_name (expand)&#45;&gt;[root] module.gke_cluster (expand)</title>
<path fill="none" stroke="black" d="M757.92,-361.85C658.36,-349.82 520.09,-333.1 422.42,-321.29"/>
<polygon fill="black" stroke="black" points="422.56,-317.78 412.21,-320.06 421.72,-324.73 422.56,-317.78"/>
</g>
<!-- [root] module.network_module.output.out_restricted_name (expand) -->
<g id="node20" class="node">
<title>[root] module.network_module.output.out_restricted_name (expand)</title>
<ellipse fill="none" stroke="black" cx="2798.2" cy="-306" rx="328.44" ry="18"/>
<text text-anchor="middle" x="2798.2" y="-302.3" font-family="Times,serif" font-size="14.00">[root] module.network_module.output.out_restricted_name (expand)</text>
</g>
<!-- [root] module.gke_cluster.var.sub_network_name (expand)&#45;&gt;[root] module.network_module.output.out_restricted_name (expand) -->
<g id="edge13" class="edge">
<title>[root] module.gke_cluster.var.sub_network_name (expand)&#45;&gt;[root] module.network_module.output.out_restricted_name (expand)</title>
<path fill="none" stroke="black" d="M1133.84,-369.86C1444.97,-360.71 1991.83,-343.65 2460.2,-324 2492.52,-322.64 2526.57,-321.09 2560.11,-319.47"/>
<polygon fill="black" stroke="black" points="2560.68,-322.95 2570.5,-318.97 2560.34,-315.96 2560.68,-322.95"/>
</g>
<!-- [root] module.network_module.output.out_vpc_name (expand)&#45;&gt;[root] module.network_module.google_compute_network.vpc (expand) -->
<g id="edge40" class="edge">
<title>[root] module.network_module.output.out_vpc_name (expand)&#45;&gt;[root] module.network_module.google_compute_network.vpc (expand)</title>
<path fill="none" stroke="black" d="M1263.49,-290.11C1512.5,-263.85 2028.56,-209.45 2297.61,-181.09"/>
<polygon fill="black" stroke="black" points="2298.29,-184.54 2307.86,-180.01 2297.55,-177.58 2298.29,-184.54"/>
</g>
<!-- [root] module.network_module.output.out_restricted_name (expand)&#45;&gt;[root] module.network_module.google_compute_subnetwork.restricted (expand) -->
<g id="edge39" class="edge">
<title>[root] module.network_module.output.out_restricted_name (expand)&#45;&gt;[root] module.network_module.google_compute_subnetwork.restricted (expand)</title>
<path fill="none" stroke="black" d="M2792.26,-287.7C2789.59,-279.9 2786.37,-270.51 2783.4,-261.83"/>
<polygon fill="black" stroke="black" points="2786.62,-260.43 2780.06,-252.1 2779.99,-262.7 2786.62,-260.43"/>
</g>
<!-- [root] module.network_module (close) -->
<g id="node21" class="node">
<title>[root] module.network_module (close)</title>
<ellipse fill="none" stroke="black" cx="2798.2" cy="-378" rx="186.57" ry="18"/>
<text text-anchor="middle" x="2798.2" y="-374.3" font-family="Times,serif" font-size="14.00">[root] module.network_module (close)</text>
</g>
<!-- [root] module.network_module (close)&#45;&gt;[root] module.network_module.google_compute_firewall.management_subnet_firewall (expand) -->
<g id="edge14" class="edge">
<title>[root] module.network_module (close)&#45;&gt;[root] module.network_module.google_compute_firewall.management_subnet_firewall (expand)</title>
<path fill="none" stroke="black" d="M2648.85,-367.21C2481.1,-356.22 2205.42,-338.15 1999.75,-324.67"/>
<polygon fill="black" stroke="black" points="1999.91,-321.17 1989.7,-324.01 1999.45,-328.16 1999.91,-321.17"/>
</g>
<!-- [root] module.network_module (close)&#45;&gt;[root] module.network_module.google_compute_instance.private&#45;management&#45;vm (expand) -->
<g id="edge15" class="edge">
<title>[root] module.network_module (close)&#45;&gt;[root] module.network_module.google_compute_instance.private&#45;management&#45;vm (expand)</title>
<path fill="none" stroke="black" d="M2929.24,-365.16C2952.53,-363.27 2976.57,-361.46 2999.2,-360 3358.81,-336.81 3449.31,-342.44 3809.2,-324 3810.52,-323.93 3811.85,-323.86 3813.18,-323.8"/>
<polygon fill="black" stroke="black" points="3813.63,-327.28 3823.44,-323.26 3813.27,-320.29 3813.63,-327.28"/>
</g>
<!-- [root] module.network_module (close)&#45;&gt;[root] module.network_module.google_compute_router.router (expand) -->
<g id="edge16" class="edge">
<title>[root] module.network_module (close)&#45;&gt;[root] module.network_module.google_compute_router.router (expand)</title>
<path fill="none" stroke="black" d="M2690.13,-363.3C2604.58,-352.45 2484.3,-337.19 2390.52,-325.3"/>
<polygon fill="black" stroke="black" points="2390.74,-321.8 2380.37,-324.02 2389.86,-328.75 2390.74,-321.8"/>
</g>
<!-- [root] module.network_module (close)&#45;&gt;[root] module.network_module.google_project_iam_member.example_binding (expand) -->
<g id="edge17" class="edge">
<title>[root] module.network_module (close)&#45;&gt;[root] module.network_module.google_project_iam_member.example_binding (expand)</title>
<path fill="none" stroke="black" d="M2976.92,-372.76C3269.44,-365.43 3868.98,-348.81 4388.11,-324.04"/>
<polygon fill="black" stroke="black" points="4388.61,-327.52 4398.43,-323.55 4388.28,-320.53 4388.61,-327.52"/>
</g>
<!-- [root] module.network_module (close)&#45;&gt;[root] module.network_module.output.out_vpc_name (expand) -->
<g id="edge20" class="edge">
<title>[root] module.network_module (close)&#45;&gt;[root] module.network_module.output.out_vpc_name (expand)</title>
<path fill="none" stroke="black" d="M2625.27,-371.23C2365.53,-362.35 1859.23,-344.23 1429.2,-324 1400.33,-322.64 1369.95,-321.1 1339.98,-319.51"/>
<polygon fill="black" stroke="black" points="1340.01,-316 1329.84,-318.97 1339.64,-323 1340.01,-316"/>
</g>
<!-- [root] module.network_module (close)&#45;&gt;[root] module.network_module.output.out_restricted_name (expand) -->
<g id="edge19" class="edge">
<title>[root] module.network_module (close)&#45;&gt;[root] module.network_module.output.out_restricted_name (expand)</title>
<path fill="none" stroke="black" d="M2798.2,-359.7C2798.2,-351.98 2798.2,-342.71 2798.2,-334.11"/>
<polygon fill="black" stroke="black" points="2801.7,-334.1 2798.2,-324.1 2794.7,-334.1 2801.7,-334.1"/>
</g>
<!-- [root] module.network_module.output.out_restricted_id (expand) -->
<g id="node22" class="node">
<title>[root] module.network_module.output.out_restricted_id (expand)</title>
<ellipse fill="none" stroke="black" cx="3456.2" cy="-306" rx="311.14" ry="18"/>
<text text-anchor="middle" x="3456.2" y="-302.3" font-family="Times,serif" font-size="14.00">[root] module.network_module.output.out_restricted_id (expand)</text>
</g>
<!-- [root] module.network_module (close)&#45;&gt;[root] module.network_module.output.out_restricted_id (expand) -->
<g id="edge18" class="edge">
<title>[root] module.network_module (close)&#45;&gt;[root] module.network_module.output.out_restricted_id (expand)</title>
<path fill="none" stroke="black" d="M2918.5,-364.2C3027.06,-352.65 3187.24,-335.61 3304.53,-323.13"/>
<polygon fill="black" stroke="black" points="3305.1,-326.59 3314.67,-322.06 3304.36,-319.63 3305.1,-326.59"/>
</g>
<!-- [root] module.network_module.output.vpc_id (expand) -->
<g id="node23" class="node">
<title>[root] module.network_module.output.vpc_id (expand)</title>
<ellipse fill="none" stroke="black" cx="3293.2" cy="-234" rx="262.65" ry="18"/>
<text text-anchor="middle" x="3293.2" y="-230.3" font-family="Times,serif" font-size="14.00">[root] module.network_module.output.vpc_id (expand)</text>
</g>
<!-- [root] module.network_module (close)&#45;&gt;[root] module.network_module.output.vpc_id (expand) -->
<g id="edge21" class="edge">
<title>[root] module.network_module (close)&#45;&gt;[root] module.network_module.output.vpc_id (expand)</title>
<path fill="none" stroke="black" d="M2929.51,-365.17C2952.72,-363.29 2976.66,-361.47 2999.2,-360 3042.32,-357.18 3746.36,-355.26 3776.2,-324 3787.25,-312.43 3786.88,-299.91 3776.2,-288 3765.68,-276.27 3602.97,-260.18 3469.26,-248.82"/>
<polygon fill="black" stroke="black" points="3469.54,-245.33 3459.28,-247.97 3468.95,-252.3 3469.54,-245.33"/>
</g>
<!-- [root] module.network_module.output.out_restricted_id (expand)&#45;&gt;[root] module.network_module.google_compute_subnetwork.restricted (expand) -->
<g id="edge38" class="edge">
<title>[root] module.network_module.output.out_restricted_id (expand)&#45;&gt;[root] module.network_module.google_compute_subnetwork.restricted (expand)</title>
<path fill="none" stroke="black" d="M3310.73,-290.07C3205.25,-279.24 3062.09,-264.55 2950.17,-253.06"/>
<polygon fill="black" stroke="black" points="2950.43,-249.57 2940.12,-252.03 2949.71,-256.53 2950.43,-249.57"/>
</g>
<!-- [root] module.network_module.output.vpc_id (expand)&#45;&gt;[root] module.network_module.google_compute_network.vpc (expand) -->
<g id="edge41" class="edge">
<title>[root] module.network_module.output.vpc_id (expand)&#45;&gt;[root] module.network_module.google_compute_network.vpc (expand)</title>
<path fill="none" stroke="black" d="M3135.3,-219.59C3005.92,-208.6 2821.7,-192.95 2679.77,-180.89"/>
<polygon fill="black" stroke="black" points="2679.89,-177.39 2669.63,-180.03 2679.3,-184.36 2679.89,-177.39"/>
</g>
<!-- [root] module.network_module.var.vpc_name (expand)&#45;&gt;[root] module.network_module (expand) -->
<g id="edge44" class="edge">
<title>[root] module.network_module.var.vpc_name (expand)&#45;&gt;[root] module.network_module (expand)</title>
<path fill="none" stroke="black" d="M2590.39,-77.2C2799.58,-63.88 3137,-42.39 3338.02,-29.58"/>
<polygon fill="black" stroke="black" points="3338.33,-33.07 3348.08,-28.94 3337.88,-26.09 3338.33,-33.07"/>
</g>
<!-- [root] module.network_module.var.management&#45;subnet&#45;name (expand)&#45;&gt;[root] module.network_module (expand) -->
<g id="edge42" class="edge">
<title>[root] module.network_module.var.management&#45;subnet&#45;name (expand)&#45;&gt;[root] module.network_module (expand)</title>
<path fill="none" stroke="black" d="M3785.92,-72.59C3728.58,-61.68 3653.41,-47.38 3595.14,-36.3"/>
<polygon fill="black" stroke="black" points="3595.69,-32.84 3585.21,-34.41 3594.38,-39.72 3595.69,-32.84"/>
</g>
<!-- [root] module.network_module.var.restricted&#45;subnet&#45;name (expand)&#45;&gt;[root] module.network_module (expand) -->
<g id="edge43" class="edge">
<title>[root] module.network_module.var.restricted&#45;subnet&#45;name (expand)&#45;&gt;[root] module.network_module (expand)</title>
<path fill="none" stroke="black" d="M3517.39,-143.87C3514.83,-119.67 3510.14,-75.21 3507.09,-46.39"/>
<polygon fill="black" stroke="black" points="3510.54,-45.77 3506.01,-36.19 3503.58,-46.5 3510.54,-45.77"/>
</g>
<!-- [root] provider[&quot;registry.terraform.io/hashicorp/google&quot;] (close) -->
<g id="node28" class="node">
<title>[root] provider[&quot;registry.terraform.io/hashicorp/google&quot;] (close)</title>
<ellipse fill="none" stroke="black" cx="2246.2" cy="-594" rx="304.65" ry="18"/>
<text text-anchor="middle" x="2246.2" y="-590.3" font-family="Times,serif" font-size="14.00">[root] provider[&quot;registry.terraform.io/hashicorp/google&quot;] (close)</text>
</g>
<!-- [root] provider[&quot;registry.terraform.io/hashicorp/google&quot;] (close)&#45;&gt;[root] module.gke_cluster.google_container_node_pool.private&#45;cluster&#45;node&#45;pool (expand) -->
<g id="edge45" class="edge">
<title>[root] provider[&quot;registry.terraform.io/hashicorp/google&quot;] (close)&#45;&gt;[root] module.gke_cluster.google_container_node_pool.private&#45;cluster&#45;node&#45;pool (expand)</title>
<path fill="none" stroke="black" d="M2061.08,-579.67C1907.71,-568.62 1688.42,-552.83 1520.27,-540.72"/>
<polygon fill="black" stroke="black" points="1520.51,-537.23 1510.29,-540 1520.01,-544.21 1520.51,-537.23"/>
</g>
<!-- [root] provider[&quot;registry.terraform.io/hashicorp/google&quot;] (close)&#45;&gt;[root] module.gke_cluster.google_project_iam_member.example_binding (expand) -->
<g id="edge46" class="edge">
<title>[root] provider[&quot;registry.terraform.io/hashicorp/google&quot;] (close)&#45;&gt;[root] module.gke_cluster.google_project_iam_member.example_binding (expand)</title>
<path fill="none" stroke="black" d="M2145.3,-576.98C2079.02,-566.46 1992.07,-552.66 1922.68,-541.65"/>
<polygon fill="black" stroke="black" points="1923,-538.15 1912.57,-540.04 1921.9,-545.07 1923,-538.15"/>
</g>
<!-- [root] provider[&quot;registry.terraform.io/hashicorp/google&quot;] (close)&#45;&gt;[root] module.network_module.google_compute_firewall.management_subnet_firewall (expand) -->
<g id="edge47" class="edge">
<title>[root] provider[&quot;registry.terraform.io/hashicorp/google&quot;] (close)&#45;&gt;[root] module.network_module.google_compute_firewall.management_subnet_firewall (expand)</title>
<path fill="none" stroke="black" d="M2215.46,-575.97C2126.57,-526.7 1869.21,-384.05 1769.92,-329.02"/>
<polygon fill="black" stroke="black" points="1771.54,-325.91 1761.09,-324.13 1768.14,-332.03 1771.54,-325.91"/>
</g>
<!-- [root] provider[&quot;registry.terraform.io/hashicorp/google&quot;] (close)&#45;&gt;[root] module.network_module.google_compute_instance.private&#45;management&#45;vm (expand) -->
<g id="edge48" class="edge">
<title>[root] provider[&quot;registry.terraform.io/hashicorp/google&quot;] (close)&#45;&gt;[root] module.network_module.google_compute_instance.private&#45;management&#45;vm (expand)</title>
<path fill="none" stroke="black" d="M2349.63,-577.06C2669.31,-527.8 3640.53,-378.14 3981.95,-325.53"/>
<polygon fill="black" stroke="black" points="3982.51,-328.98 3991.86,-324 3981.45,-322.07 3982.51,-328.98"/>
</g>
<!-- [root] provider[&quot;registry.terraform.io/hashicorp/google&quot;] (close)&#45;&gt;[root] module.network_module.google_compute_router.router (expand) -->
<g id="edge49" class="edge">
<title>[root] provider[&quot;registry.terraform.io/hashicorp/google&quot;] (close)&#45;&gt;[root] module.network_module.google_compute_router.router (expand)</title>
<path fill="none" stroke="black" d="M2246.2,-575.97C2246.2,-528.29 2246.2,-393.18 2246.2,-334.63"/>
<polygon fill="black" stroke="black" points="2249.7,-334.31 2246.2,-324.31 2242.7,-334.31 2249.7,-334.31"/>
</g>
<!-- [root] provider[&quot;registry.terraform.io/hashicorp/google&quot;] (close)&#45;&gt;[root] module.network_module.google_project_iam_member.example_binding (expand) -->
<g id="edge50" class="edge">
<title>[root] provider[&quot;registry.terraform.io/hashicorp/google&quot;] (close)&#45;&gt;[root] module.network_module.google_project_iam_member.example_binding (expand)</title>
<path fill="none" stroke="black" d="M2383.06,-577.91C2477.3,-567.45 2605.37,-553.1 2718.2,-540 3387.56,-462.27 4186.11,-365.04 4511.35,-325.25"/>
<polygon fill="black" stroke="black" points="4511.81,-328.72 4521.31,-324.03 4510.96,-321.77 4511.81,-328.72"/>
</g>
<!-- [root] root -->
<g id="node29" class="node">
<title>[root] root</title>
<ellipse fill="none" stroke="black" cx="2246.2" cy="-666" rx="58.49" ry="18"/>
<text text-anchor="middle" x="2246.2" y="-662.3" font-family="Times,serif" font-size="14.00">[root] root</text>
</g>
<!-- [root] root&#45;&gt;[root] module.gke_cluster (close) -->
<g id="edge51" class="edge">
<title>[root] root&#45;&gt;[root] module.gke_cluster (close)</title>
<path fill="none" stroke="black" d="M2194.19,-657.51C2115.98,-646.24 1966.48,-624.71 1865.06,-610.1"/>
<polygon fill="black" stroke="black" points="1865.49,-606.63 1855.09,-608.67 1864.49,-613.56 1865.49,-606.63"/>
</g>
<!-- [root] root&#45;&gt;[root] module.network_module (close) -->
<g id="edge52" class="edge">
<title>[root] root&#45;&gt;[root] module.network_module (close)</title>
<path fill="none" stroke="black" d="M2304.72,-665.4C2370.34,-663.6 2478.29,-653.71 2560.2,-612 2660.33,-561.01 2745.59,-453.17 2780.85,-404.17"/>
<polygon fill="black" stroke="black" points="2783.71,-406.19 2786.65,-396.01 2778.01,-402.13 2783.71,-406.19"/>
</g>
<!-- [root] root&#45;&gt;[root] provider[&quot;registry.terraform.io/hashicorp/google&quot;] (close) -->
<g id="edge53" class="edge">
<title>[root] root&#45;&gt;[root] provider[&quot;registry.terraform.io/hashicorp/google&quot;] (close)</title>
<path fill="none" stroke="black" d="M2246.2,-647.7C2246.2,-639.98 2246.2,-630.71 2246.2,-622.11"/>
<polygon fill="black" stroke="black" points="2249.7,-622.1 2246.2,-612.1 2242.7,-622.1 2249.7,-622.1"/>
</g>
</g>
</svg>
